<mxfile host="app.diagrams.net" modified="2023-03-09T10:05:37.093Z" agent="5.0 (Macintosh; Intel Mac OS X 10_15_7) AppleWebKit/537.36 (KHTML, like Gecko) Chrome/109.0.0.0 Safari/537.36" etag="X3DMbC_kR4fBuT2t6drm" version="21.0.4" type="github">
  <diagram name="Page-1" id="74e2e168-ea6b-b213-b513-2b3c1d86103e">
    <mxGraphModel dx="1191" dy="2531" grid="1" gridSize="10" guides="1" tooltips="1" connect="1" arrows="1" fold="1" page="1" pageScale="1" pageWidth="1100" pageHeight="850" background="none" math="0" shadow="0">
      <root>
        <mxCell id="0" />
        <mxCell id="1" parent="0" />
        <mxCell id="77e6c97f196da883-1" value="Регистрация" style="swimlane;html=1;childLayout=stackLayout;startSize=20;rounded=0;shadow=0;labelBackgroundColor=none;strokeWidth=1;fontFamily=Verdana;fontSize=8;align=center;" parent="1" vertex="1">
          <mxGeometry x="70" y="40" width="960" height="750" as="geometry" />
        </mxCell>
        <mxCell id="77e6c97f196da883-2" value="пользователь" style="swimlane;html=1;startSize=20;" parent="77e6c97f196da883-1" vertex="1">
          <mxGeometry y="20" width="160" height="730" as="geometry" />
        </mxCell>
        <mxCell id="PdHf83JX79WG0qEQujX1-6" value="запуск приложения&lt;br&gt;и выбор пункта с регистрацией" style="rounded=1;whiteSpace=wrap;html=1;" vertex="1" parent="77e6c97f196da883-2">
          <mxGeometry x="20" y="40" width="120" height="60" as="geometry" />
        </mxCell>
        <mxCell id="PdHf83JX79WG0qEQujX1-10" value="ввод логина и пароля" style="rounded=1;whiteSpace=wrap;html=1;" vertex="1" parent="77e6c97f196da883-2">
          <mxGeometry x="20" y="130" width="120" height="60" as="geometry" />
        </mxCell>
        <mxCell id="PdHf83JX79WG0qEQujX1-27" value="попадает в авторизованную зону с выбором дальнейших действий" style="rounded=1;whiteSpace=wrap;html=1;" vertex="1" parent="77e6c97f196da883-2">
          <mxGeometry x="20" y="450" width="120" height="90" as="geometry" />
        </mxCell>
        <mxCell id="77e6c97f196da883-3" value="клиентское приложение" style="swimlane;html=1;startSize=20;" parent="77e6c97f196da883-1" vertex="1">
          <mxGeometry x="160" y="20" width="160" height="730" as="geometry" />
        </mxCell>
        <mxCell id="PdHf83JX79WG0qEQujX1-7" value="введите логин и пароль" style="rounded=1;whiteSpace=wrap;html=1;" vertex="1" parent="77e6c97f196da883-3">
          <mxGeometry x="20" y="90" width="120" height="60" as="geometry" />
        </mxCell>
        <mxCell id="PdHf83JX79WG0qEQujX1-12" value="отправляем логин и шифруем логин, берем base64 и отправляем в качестве пароля" style="rounded=1;whiteSpace=wrap;html=1;" vertex="1" parent="77e6c97f196da883-3">
          <mxGeometry x="20" y="200" width="120" height="120" as="geometry" />
        </mxCell>
        <mxCell id="PdHf83JX79WG0qEQujX1-25" value="сохраняем токен в памяти и отвечаем пользователю" style="rounded=1;whiteSpace=wrap;html=1;" vertex="1" parent="77e6c97f196da883-3">
          <mxGeometry x="20" y="440" width="120" height="60" as="geometry" />
        </mxCell>
        <mxCell id="77e6c97f196da883-4" value="сервер" style="swimlane;html=1;startSize=20;" parent="77e6c97f196da883-1" vertex="1">
          <mxGeometry x="320" y="20" width="200" height="730" as="geometry" />
        </mxCell>
        <mxCell id="PdHf83JX79WG0qEQujX1-15" value="от пароля берем bcrypt и сохраняем в базу логин и результат bcrypt" style="rounded=1;whiteSpace=wrap;html=1;" vertex="1" parent="77e6c97f196da883-4">
          <mxGeometry x="20" y="305" width="120" height="85" as="geometry" />
        </mxCell>
        <mxCell id="PdHf83JX79WG0qEQujX1-23" value="генерация и возврат JWT_TOKEN" style="rounded=1;whiteSpace=wrap;html=1;" vertex="1" parent="77e6c97f196da883-4">
          <mxGeometry x="30" y="440" width="120" height="60" as="geometry" />
        </mxCell>
        <mxCell id="77e6c97f196da883-5" value="база" style="swimlane;html=1;startSize=20;" parent="77e6c97f196da883-1" vertex="1">
          <mxGeometry x="520" y="20" width="200" height="730" as="geometry" />
        </mxCell>
        <mxCell id="PdHf83JX79WG0qEQujX1-17" value="проверяем что нет такого логина, если есть возвращаем ошибку, если нету то сохраняем нового пользователя" style="rounded=1;whiteSpace=wrap;html=1;" vertex="1" parent="77e6c97f196da883-5">
          <mxGeometry x="20" y="300" width="120" height="140" as="geometry" />
        </mxCell>
        <mxCell id="PdHf83JX79WG0qEQujX1-9" style="edgeStyle=orthogonalEdgeStyle;rounded=0;orthogonalLoop=1;jettySize=auto;html=1;exitX=1;exitY=0.5;exitDx=0;exitDy=0;entryX=0;entryY=0.5;entryDx=0;entryDy=0;" edge="1" parent="77e6c97f196da883-1" source="PdHf83JX79WG0qEQujX1-6" target="PdHf83JX79WG0qEQujX1-7">
          <mxGeometry relative="1" as="geometry" />
        </mxCell>
        <mxCell id="PdHf83JX79WG0qEQujX1-11" style="edgeStyle=orthogonalEdgeStyle;rounded=0;orthogonalLoop=1;jettySize=auto;html=1;exitX=0;exitY=0.75;exitDx=0;exitDy=0;entryX=1;entryY=0.25;entryDx=0;entryDy=0;" edge="1" parent="77e6c97f196da883-1" source="PdHf83JX79WG0qEQujX1-7" target="PdHf83JX79WG0qEQujX1-10">
          <mxGeometry relative="1" as="geometry" />
        </mxCell>
        <mxCell id="PdHf83JX79WG0qEQujX1-13" style="edgeStyle=orthogonalEdgeStyle;rounded=0;orthogonalLoop=1;jettySize=auto;html=1;exitX=1;exitY=0.75;exitDx=0;exitDy=0;entryX=0;entryY=0.25;entryDx=0;entryDy=0;" edge="1" parent="77e6c97f196da883-1" source="PdHf83JX79WG0qEQujX1-10" target="PdHf83JX79WG0qEQujX1-12">
          <mxGeometry relative="1" as="geometry" />
        </mxCell>
        <mxCell id="PdHf83JX79WG0qEQujX1-16" style="edgeStyle=orthogonalEdgeStyle;rounded=0;orthogonalLoop=1;jettySize=auto;html=1;exitX=1;exitY=0.75;exitDx=0;exitDy=0;entryX=0;entryY=0.25;entryDx=0;entryDy=0;" edge="1" parent="77e6c97f196da883-1" source="PdHf83JX79WG0qEQujX1-12" target="PdHf83JX79WG0qEQujX1-15">
          <mxGeometry relative="1" as="geometry" />
        </mxCell>
        <mxCell id="PdHf83JX79WG0qEQujX1-18" style="edgeStyle=orthogonalEdgeStyle;rounded=0;orthogonalLoop=1;jettySize=auto;html=1;exitX=1;exitY=0.5;exitDx=0;exitDy=0;entryX=0;entryY=0.5;entryDx=0;entryDy=0;" edge="1" parent="77e6c97f196da883-1" source="PdHf83JX79WG0qEQujX1-15" target="PdHf83JX79WG0qEQujX1-17">
          <mxGeometry relative="1" as="geometry" />
        </mxCell>
        <mxCell id="PdHf83JX79WG0qEQujX1-24" style="edgeStyle=orthogonalEdgeStyle;rounded=0;orthogonalLoop=1;jettySize=auto;html=1;exitX=0;exitY=0.75;exitDx=0;exitDy=0;entryX=1;entryY=0.25;entryDx=0;entryDy=0;" edge="1" parent="77e6c97f196da883-1" source="PdHf83JX79WG0qEQujX1-17" target="PdHf83JX79WG0qEQujX1-23">
          <mxGeometry relative="1" as="geometry" />
        </mxCell>
        <mxCell id="PdHf83JX79WG0qEQujX1-26" style="edgeStyle=orthogonalEdgeStyle;rounded=0;orthogonalLoop=1;jettySize=auto;html=1;exitX=0;exitY=0.5;exitDx=0;exitDy=0;entryX=1;entryY=0.5;entryDx=0;entryDy=0;" edge="1" parent="77e6c97f196da883-1" source="PdHf83JX79WG0qEQujX1-23" target="PdHf83JX79WG0qEQujX1-25">
          <mxGeometry relative="1" as="geometry" />
        </mxCell>
        <mxCell id="PdHf83JX79WG0qEQujX1-28" style="edgeStyle=orthogonalEdgeStyle;rounded=0;orthogonalLoop=1;jettySize=auto;html=1;exitX=0;exitY=0.5;exitDx=0;exitDy=0;entryX=1;entryY=0.5;entryDx=0;entryDy=0;" edge="1" parent="77e6c97f196da883-1" source="PdHf83JX79WG0qEQujX1-25" target="PdHf83JX79WG0qEQujX1-27">
          <mxGeometry relative="1" as="geometry" />
        </mxCell>
        <mxCell id="PdHf83JX79WG0qEQujX1-1" value="Новый секрет" style="swimlane;html=1;childLayout=stackLayout;startSize=20;rounded=0;shadow=0;labelBackgroundColor=none;strokeWidth=1;fontFamily=Verdana;fontSize=8;align=center;" vertex="1" parent="1">
          <mxGeometry x="80" y="830" width="970" height="1090" as="geometry" />
        </mxCell>
        <mxCell id="PdHf83JX79WG0qEQujX1-2" value="пользователь" style="swimlane;html=1;startSize=20;" vertex="1" parent="PdHf83JX79WG0qEQujX1-1">
          <mxGeometry y="20" width="160" height="1070" as="geometry" />
        </mxCell>
        <mxCell id="PdHf83JX79WG0qEQujX1-92" value="вводит имя нового секрета" style="rounded=1;whiteSpace=wrap;html=1;" vertex="1" parent="PdHf83JX79WG0qEQujX1-2">
          <mxGeometry x="20" y="140" width="120" height="60" as="geometry" />
        </mxCell>
        <mxCell id="PdHf83JX79WG0qEQujX1-101" value="Вводит дополнительную информацию" style="rounded=1;whiteSpace=wrap;html=1;" vertex="1" parent="PdHf83JX79WG0qEQujX1-2">
          <mxGeometry x="20" y="570" width="120" height="60" as="geometry" />
        </mxCell>
        <mxCell id="PdHf83JX79WG0qEQujX1-3" value="клиентское приложение" style="swimlane;html=1;startSize=20;" vertex="1" parent="PdHf83JX79WG0qEQujX1-1">
          <mxGeometry x="160" y="20" width="220" height="1070" as="geometry" />
        </mxCell>
        <mxCell id="PdHf83JX79WG0qEQujX1-91" value="просит ввести имя" style="rounded=1;whiteSpace=wrap;html=1;" vertex="1" parent="PdHf83JX79WG0qEQujX1-3">
          <mxGeometry x="20" y="90" width="120" height="60" as="geometry" />
        </mxCell>
        <mxCell id="PdHf83JX79WG0qEQujX1-95" value="Просит ввести:&lt;br&gt;Логин и пароль&lt;br&gt;Произвольный текст&lt;br&gt;Файл где хранятся бинарные данные&lt;br&gt;Номер карты" style="shape=ext;double=1;rounded=1;whiteSpace=wrap;html=1;" vertex="1" parent="PdHf83JX79WG0qEQujX1-3">
          <mxGeometry x="20" y="200" width="190" height="140" as="geometry" />
        </mxCell>
        <mxCell id="PdHf83JX79WG0qEQujX1-99" value="Просит ввести дополнительную информацию" style="rounded=1;whiteSpace=wrap;html=1;" vertex="1" parent="PdHf83JX79WG0qEQujX1-3">
          <mxGeometry x="50" y="530" width="120" height="60" as="geometry" />
        </mxCell>
        <mxCell id="PdHf83JX79WG0qEQujX1-102" value="Шифрует имя, сериализованные данные и дополнительную информация и передает на сервер с типом секрета" style="shape=ext;double=1;rounded=1;whiteSpace=wrap;html=1;" vertex="1" parent="PdHf83JX79WG0qEQujX1-3">
          <mxGeometry x="50" y="640" width="150" height="120" as="geometry" />
        </mxCell>
        <mxCell id="PdHf83JX79WG0qEQujX1-4" value="сервер" style="swimlane;html=1;startSize=20;" vertex="1" parent="PdHf83JX79WG0qEQujX1-1">
          <mxGeometry x="380" y="20" width="180" height="1070" as="geometry" />
        </mxCell>
        <mxCell id="PdHf83JX79WG0qEQujX1-103" value="присваивает данным UID и сохраняет в базу" style="rounded=1;whiteSpace=wrap;html=1;" vertex="1" parent="PdHf83JX79WG0qEQujX1-4">
          <mxGeometry x="30" y="670" width="120" height="60" as="geometry" />
        </mxCell>
        <mxCell id="PdHf83JX79WG0qEQujX1-5" value="база" style="swimlane;html=1;startSize=20;" vertex="1" parent="PdHf83JX79WG0qEQujX1-1">
          <mxGeometry x="560" y="20" width="160" height="1070" as="geometry" />
        </mxCell>
        <mxCell id="PdHf83JX79WG0qEQujX1-107" style="edgeStyle=orthogonalEdgeStyle;rounded=0;orthogonalLoop=1;jettySize=auto;html=1;exitX=0.5;exitY=1;exitDx=0;exitDy=0;entryX=0.5;entryY=0;entryDx=0;entryDy=0;" edge="1" parent="PdHf83JX79WG0qEQujX1-5" source="PdHf83JX79WG0qEQujX1-105" target="PdHf83JX79WG0qEQujX1-106">
          <mxGeometry relative="1" as="geometry" />
        </mxCell>
        <mxCell id="PdHf83JX79WG0qEQujX1-105" value="Проверяет что нету записи с data1(шифрованное имя секрета)" style="rounded=1;whiteSpace=wrap;html=1;" vertex="1" parent="PdHf83JX79WG0qEQujX1-5">
          <mxGeometry x="20" y="690" width="130" height="120" as="geometry" />
        </mxCell>
        <mxCell id="PdHf83JX79WG0qEQujX1-106" value="сохраняет UID, data1, data2, data3, type и&amp;nbsp; version=1 в таблицу" style="rounded=1;whiteSpace=wrap;html=1;" vertex="1" parent="PdHf83JX79WG0qEQujX1-5">
          <mxGeometry x="15" y="840" width="140" height="90" as="geometry" />
        </mxCell>
        <mxCell id="PdHf83JX79WG0qEQujX1-94" style="edgeStyle=orthogonalEdgeStyle;rounded=0;orthogonalLoop=1;jettySize=auto;html=1;exitX=0;exitY=0.75;exitDx=0;exitDy=0;entryX=1;entryY=0.25;entryDx=0;entryDy=0;" edge="1" parent="PdHf83JX79WG0qEQujX1-1" source="PdHf83JX79WG0qEQujX1-91" target="PdHf83JX79WG0qEQujX1-92">
          <mxGeometry relative="1" as="geometry" />
        </mxCell>
        <mxCell id="PdHf83JX79WG0qEQujX1-104" style="edgeStyle=orthogonalEdgeStyle;rounded=0;orthogonalLoop=1;jettySize=auto;html=1;exitX=1;exitY=0.5;exitDx=0;exitDy=0;entryX=0;entryY=0.5;entryDx=0;entryDy=0;" edge="1" parent="PdHf83JX79WG0qEQujX1-1" source="PdHf83JX79WG0qEQujX1-102" target="PdHf83JX79WG0qEQujX1-103">
          <mxGeometry relative="1" as="geometry" />
        </mxCell>
        <mxCell id="PdHf83JX79WG0qEQujX1-108" style="edgeStyle=orthogonalEdgeStyle;rounded=0;orthogonalLoop=1;jettySize=auto;html=1;exitX=1;exitY=0.5;exitDx=0;exitDy=0;entryX=0;entryY=0.25;entryDx=0;entryDy=0;" edge="1" parent="PdHf83JX79WG0qEQujX1-1" source="PdHf83JX79WG0qEQujX1-103" target="PdHf83JX79WG0qEQujX1-105">
          <mxGeometry relative="1" as="geometry" />
        </mxCell>
        <mxCell id="PdHf83JX79WG0qEQujX1-109" style="edgeStyle=orthogonalEdgeStyle;rounded=0;orthogonalLoop=1;jettySize=auto;html=1;exitX=1;exitY=0.75;exitDx=0;exitDy=0;entryX=0;entryY=0.25;entryDx=0;entryDy=0;" edge="1" parent="PdHf83JX79WG0qEQujX1-1" source="PdHf83JX79WG0qEQujX1-101" target="PdHf83JX79WG0qEQujX1-102">
          <mxGeometry relative="1" as="geometry" />
        </mxCell>
        <mxCell id="PdHf83JX79WG0qEQujX1-110" style="edgeStyle=orthogonalEdgeStyle;rounded=0;orthogonalLoop=1;jettySize=auto;html=1;exitX=0;exitY=0.5;exitDx=0;exitDy=0;entryX=1;entryY=0.25;entryDx=0;entryDy=0;" edge="1" parent="PdHf83JX79WG0qEQujX1-1" source="PdHf83JX79WG0qEQujX1-99" target="PdHf83JX79WG0qEQujX1-101">
          <mxGeometry relative="1" as="geometry" />
        </mxCell>
        <mxCell id="PdHf83JX79WG0qEQujX1-113" style="edgeStyle=orthogonalEdgeStyle;rounded=0;orthogonalLoop=1;jettySize=auto;html=1;exitX=1;exitY=0.75;exitDx=0;exitDy=0;entryX=0.25;entryY=0;entryDx=0;entryDy=0;" edge="1" parent="PdHf83JX79WG0qEQujX1-1" source="PdHf83JX79WG0qEQujX1-92" target="PdHf83JX79WG0qEQujX1-95">
          <mxGeometry relative="1" as="geometry" />
        </mxCell>
        <mxCell id="PdHf83JX79WG0qEQujX1-14" value="Алгоритм шифрования:&lt;br&gt;aes с ключом в виде хэша от пароля" style="rounded=1;whiteSpace=wrap;html=1;" vertex="1" parent="1">
          <mxGeometry x="70" y="-210" width="320" height="160" as="geometry" />
        </mxCell>
        <mxCell id="PdHf83JX79WG0qEQujX1-32" style="edgeStyle=orthogonalEdgeStyle;rounded=0;orthogonalLoop=1;jettySize=auto;html=1;exitX=1;exitY=0.25;exitDx=0;exitDy=0;entryX=0;entryY=0.25;entryDx=0;entryDy=0;" edge="1" parent="1" source="PdHf83JX79WG0qEQujX1-29" target="PdHf83JX79WG0qEQujX1-30">
          <mxGeometry relative="1" as="geometry" />
        </mxCell>
        <mxCell id="PdHf83JX79WG0qEQujX1-35" style="edgeStyle=orthogonalEdgeStyle;rounded=0;orthogonalLoop=1;jettySize=auto;html=1;exitX=1;exitY=0.75;exitDx=0;exitDy=0;entryX=0;entryY=0.5;entryDx=0;entryDy=0;" edge="1" parent="1" source="PdHf83JX79WG0qEQujX1-29" target="PdHf83JX79WG0qEQujX1-34">
          <mxGeometry relative="1" as="geometry" />
        </mxCell>
        <mxCell id="PdHf83JX79WG0qEQujX1-29" value="1. Registration&lt;br&gt;2. Auth" style="rounded=1;whiteSpace=wrap;html=1;" vertex="1" parent="1">
          <mxGeometry x="90" y="-670" width="120" height="60" as="geometry" />
        </mxCell>
        <mxCell id="PdHf83JX79WG0qEQujX1-37" style="edgeStyle=orthogonalEdgeStyle;rounded=0;orthogonalLoop=1;jettySize=auto;html=1;exitX=1;exitY=0.5;exitDx=0;exitDy=0;entryX=0;entryY=0.25;entryDx=0;entryDy=0;" edge="1" parent="1" source="PdHf83JX79WG0qEQujX1-30" target="PdHf83JX79WG0qEQujX1-36">
          <mxGeometry relative="1" as="geometry" />
        </mxCell>
        <mxCell id="PdHf83JX79WG0qEQujX1-30" value="Login:&lt;br&gt;Password:" style="rounded=1;whiteSpace=wrap;html=1;" vertex="1" parent="1">
          <mxGeometry x="270" y="-760" width="120" height="60" as="geometry" />
        </mxCell>
        <mxCell id="PdHf83JX79WG0qEQujX1-38" style="edgeStyle=orthogonalEdgeStyle;rounded=0;orthogonalLoop=1;jettySize=auto;html=1;exitX=1;exitY=0.25;exitDx=0;exitDy=0;entryX=0;entryY=0.75;entryDx=0;entryDy=0;" edge="1" parent="1" source="PdHf83JX79WG0qEQujX1-34" target="PdHf83JX79WG0qEQujX1-36">
          <mxGeometry relative="1" as="geometry" />
        </mxCell>
        <mxCell id="PdHf83JX79WG0qEQujX1-34" value="Login:&lt;br&gt;Password:" style="rounded=1;whiteSpace=wrap;html=1;" vertex="1" parent="1">
          <mxGeometry x="270" y="-600" width="120" height="60" as="geometry" />
        </mxCell>
        <mxCell id="PdHf83JX79WG0qEQujX1-62" style="edgeStyle=orthogonalEdgeStyle;rounded=0;orthogonalLoop=1;jettySize=auto;html=1;exitX=1;exitY=0.25;exitDx=0;exitDy=0;entryX=0;entryY=0.25;entryDx=0;entryDy=0;" edge="1" parent="1" source="PdHf83JX79WG0qEQujX1-36" target="PdHf83JX79WG0qEQujX1-39">
          <mxGeometry relative="1" as="geometry" />
        </mxCell>
        <mxCell id="PdHf83JX79WG0qEQujX1-65" style="edgeStyle=orthogonalEdgeStyle;rounded=0;orthogonalLoop=1;jettySize=auto;html=1;exitX=1;exitY=0.75;exitDx=0;exitDy=0;entryX=0;entryY=0.5;entryDx=0;entryDy=0;" edge="1" parent="1" source="PdHf83JX79WG0qEQujX1-36" target="PdHf83JX79WG0qEQujX1-64">
          <mxGeometry relative="1" as="geometry" />
        </mxCell>
        <mxCell id="PdHf83JX79WG0qEQujX1-36" value="1. New secret&lt;br&gt;2. List all secrets" style="rounded=1;whiteSpace=wrap;html=1;" vertex="1" parent="1">
          <mxGeometry x="460" y="-680" width="120" height="60" as="geometry" />
        </mxCell>
        <mxCell id="PdHf83JX79WG0qEQujX1-50" style="edgeStyle=orthogonalEdgeStyle;rounded=0;orthogonalLoop=1;jettySize=auto;html=1;exitX=1;exitY=0.5;exitDx=0;exitDy=0;entryX=0;entryY=0.5;entryDx=0;entryDy=0;" edge="1" parent="1" source="PdHf83JX79WG0qEQujX1-39" target="PdHf83JX79WG0qEQujX1-49">
          <mxGeometry relative="1" as="geometry" />
        </mxCell>
        <mxCell id="PdHf83JX79WG0qEQujX1-39" value="1. login/pass&lt;br&gt;2. text&lt;br&gt;3.binary&lt;br&gt;4. bank card" style="rounded=1;whiteSpace=wrap;html=1;" vertex="1" parent="1">
          <mxGeometry x="630" y="-740" width="120" height="60" as="geometry" />
        </mxCell>
        <mxCell id="PdHf83JX79WG0qEQujX1-56" style="edgeStyle=orthogonalEdgeStyle;rounded=0;orthogonalLoop=1;jettySize=auto;html=1;exitX=1;exitY=0.25;exitDx=0;exitDy=0;entryX=0;entryY=0;entryDx=0;entryDy=0;" edge="1" parent="1" source="PdHf83JX79WG0qEQujX1-40" target="PdHf83JX79WG0qEQujX1-55">
          <mxGeometry relative="1" as="geometry" />
        </mxCell>
        <mxCell id="PdHf83JX79WG0qEQujX1-40" value="Enter login:&lt;br&gt;Enter pass:" style="rounded=1;whiteSpace=wrap;html=1;" vertex="1" parent="1">
          <mxGeometry x="960" y="-840" width="120" height="60" as="geometry" />
        </mxCell>
        <mxCell id="PdHf83JX79WG0qEQujX1-57" style="edgeStyle=orthogonalEdgeStyle;rounded=0;orthogonalLoop=1;jettySize=auto;html=1;exitX=1;exitY=0.5;exitDx=0;exitDy=0;entryX=0;entryY=0.25;entryDx=0;entryDy=0;" edge="1" parent="1" source="PdHf83JX79WG0qEQujX1-42" target="PdHf83JX79WG0qEQujX1-55">
          <mxGeometry relative="1" as="geometry" />
        </mxCell>
        <mxCell id="PdHf83JX79WG0qEQujX1-42" value="Enter text:" style="rounded=1;whiteSpace=wrap;html=1;" vertex="1" parent="1">
          <mxGeometry x="960" y="-770" width="120" height="60" as="geometry" />
        </mxCell>
        <mxCell id="PdHf83JX79WG0qEQujX1-58" style="edgeStyle=orthogonalEdgeStyle;rounded=0;orthogonalLoop=1;jettySize=auto;html=1;exitX=1;exitY=0.5;exitDx=0;exitDy=0;entryX=0;entryY=0.5;entryDx=0;entryDy=0;" edge="1" parent="1" source="PdHf83JX79WG0qEQujX1-45" target="PdHf83JX79WG0qEQujX1-55">
          <mxGeometry relative="1" as="geometry" />
        </mxCell>
        <mxCell id="PdHf83JX79WG0qEQujX1-45" value="Enter file path for reading binary data:" style="rounded=1;whiteSpace=wrap;html=1;" vertex="1" parent="1">
          <mxGeometry x="960" y="-700" width="120" height="60" as="geometry" />
        </mxCell>
        <mxCell id="PdHf83JX79WG0qEQujX1-59" style="edgeStyle=orthogonalEdgeStyle;rounded=0;orthogonalLoop=1;jettySize=auto;html=1;exitX=1;exitY=0.5;exitDx=0;exitDy=0;entryX=0;entryY=0.75;entryDx=0;entryDy=0;" edge="1" parent="1" source="PdHf83JX79WG0qEQujX1-47" target="PdHf83JX79WG0qEQujX1-55">
          <mxGeometry relative="1" as="geometry" />
        </mxCell>
        <mxCell id="PdHf83JX79WG0qEQujX1-47" value="Enter bank card:" style="rounded=1;whiteSpace=wrap;html=1;" vertex="1" parent="1">
          <mxGeometry x="960" y="-630" width="120" height="60" as="geometry" />
        </mxCell>
        <mxCell id="PdHf83JX79WG0qEQujX1-51" style="edgeStyle=orthogonalEdgeStyle;rounded=0;orthogonalLoop=1;jettySize=auto;html=1;exitX=1;exitY=0;exitDx=0;exitDy=0;entryX=0;entryY=0.5;entryDx=0;entryDy=0;" edge="1" parent="1" source="PdHf83JX79WG0qEQujX1-49" target="PdHf83JX79WG0qEQujX1-40">
          <mxGeometry relative="1" as="geometry" />
        </mxCell>
        <mxCell id="PdHf83JX79WG0qEQujX1-52" style="edgeStyle=orthogonalEdgeStyle;rounded=0;orthogonalLoop=1;jettySize=auto;html=1;exitX=1;exitY=0.25;exitDx=0;exitDy=0;entryX=0;entryY=0.5;entryDx=0;entryDy=0;" edge="1" parent="1" source="PdHf83JX79WG0qEQujX1-49" target="PdHf83JX79WG0qEQujX1-42">
          <mxGeometry relative="1" as="geometry" />
        </mxCell>
        <mxCell id="PdHf83JX79WG0qEQujX1-53" style="edgeStyle=orthogonalEdgeStyle;rounded=0;orthogonalLoop=1;jettySize=auto;html=1;exitX=1;exitY=0.5;exitDx=0;exitDy=0;entryX=0;entryY=0.5;entryDx=0;entryDy=0;" edge="1" parent="1" source="PdHf83JX79WG0qEQujX1-49" target="PdHf83JX79WG0qEQujX1-45">
          <mxGeometry relative="1" as="geometry" />
        </mxCell>
        <mxCell id="PdHf83JX79WG0qEQujX1-54" style="edgeStyle=orthogonalEdgeStyle;rounded=0;orthogonalLoop=1;jettySize=auto;html=1;exitX=1;exitY=0.75;exitDx=0;exitDy=0;entryX=0;entryY=0.5;entryDx=0;entryDy=0;" edge="1" parent="1" source="PdHf83JX79WG0qEQujX1-49" target="PdHf83JX79WG0qEQujX1-47">
          <mxGeometry relative="1" as="geometry" />
        </mxCell>
        <mxCell id="PdHf83JX79WG0qEQujX1-49" value="Enter name:" style="rounded=1;whiteSpace=wrap;html=1;" vertex="1" parent="1">
          <mxGeometry x="780" y="-740" width="120" height="60" as="geometry" />
        </mxCell>
        <mxCell id="PdHf83JX79WG0qEQujX1-61" style="edgeStyle=orthogonalEdgeStyle;rounded=0;orthogonalLoop=1;jettySize=auto;html=1;exitX=1;exitY=0.5;exitDx=0;exitDy=0;entryX=0;entryY=0.5;entryDx=0;entryDy=0;" edge="1" parent="1" source="PdHf83JX79WG0qEQujX1-55" target="PdHf83JX79WG0qEQujX1-60">
          <mxGeometry relative="1" as="geometry" />
        </mxCell>
        <mxCell id="PdHf83JX79WG0qEQujX1-55" value="Enter meta:" style="rounded=1;whiteSpace=wrap;html=1;" vertex="1" parent="1">
          <mxGeometry x="1160" y="-750" width="120" height="60" as="geometry" />
        </mxCell>
        <mxCell id="PdHf83JX79WG0qEQujX1-63" style="edgeStyle=orthogonalEdgeStyle;rounded=0;orthogonalLoop=1;jettySize=auto;html=1;exitX=0.5;exitY=0;exitDx=0;exitDy=0;entryX=0.5;entryY=0;entryDx=0;entryDy=0;" edge="1" parent="1" source="PdHf83JX79WG0qEQujX1-60" target="PdHf83JX79WG0qEQujX1-36">
          <mxGeometry relative="1" as="geometry">
            <Array as="points">
              <mxPoint x="1440" y="-880" />
              <mxPoint x="520" y="-880" />
            </Array>
          </mxGeometry>
        </mxCell>
        <mxCell id="PdHf83JX79WG0qEQujX1-60" value="Done!" style="rounded=1;whiteSpace=wrap;html=1;" vertex="1" parent="1">
          <mxGeometry x="1380" y="-750" width="120" height="60" as="geometry" />
        </mxCell>
        <mxCell id="PdHf83JX79WG0qEQujX1-71" style="edgeStyle=orthogonalEdgeStyle;rounded=0;orthogonalLoop=1;jettySize=auto;html=1;exitX=1;exitY=0.25;exitDx=0;exitDy=0;entryX=0;entryY=0.5;entryDx=0;entryDy=0;" edge="1" parent="1" source="PdHf83JX79WG0qEQujX1-64" target="PdHf83JX79WG0qEQujX1-70">
          <mxGeometry relative="1" as="geometry" />
        </mxCell>
        <mxCell id="PdHf83JX79WG0qEQujX1-73" style="edgeStyle=orthogonalEdgeStyle;rounded=0;orthogonalLoop=1;jettySize=auto;html=1;exitX=1;exitY=0.5;exitDx=0;exitDy=0;entryX=0;entryY=0.5;entryDx=0;entryDy=0;" edge="1" parent="1" source="PdHf83JX79WG0qEQujX1-64" target="PdHf83JX79WG0qEQujX1-72">
          <mxGeometry relative="1" as="geometry" />
        </mxCell>
        <mxCell id="PdHf83JX79WG0qEQujX1-64" value="1. Name1&lt;br&gt;Meta1&lt;br&gt;2. Name2&lt;br&gt;Meta2&lt;br&gt;.&lt;br&gt;.&lt;br&gt;." style="rounded=1;whiteSpace=wrap;html=1;" vertex="1" parent="1">
          <mxGeometry x="620" y="-570" width="120" height="175" as="geometry" />
        </mxCell>
        <mxCell id="PdHf83JX79WG0qEQujX1-75" style="edgeStyle=orthogonalEdgeStyle;rounded=0;orthogonalLoop=1;jettySize=auto;html=1;exitX=1;exitY=0.5;exitDx=0;exitDy=0;entryX=0;entryY=0.25;entryDx=0;entryDy=0;" edge="1" parent="1" source="PdHf83JX79WG0qEQujX1-70" target="PdHf83JX79WG0qEQujX1-74">
          <mxGeometry relative="1" as="geometry" />
        </mxCell>
        <mxCell id="PdHf83JX79WG0qEQujX1-70" value="Data1" style="rounded=1;whiteSpace=wrap;html=1;" vertex="1" parent="1">
          <mxGeometry x="830" y="-530" width="120" height="60" as="geometry" />
        </mxCell>
        <mxCell id="PdHf83JX79WG0qEQujX1-76" style="edgeStyle=orthogonalEdgeStyle;rounded=0;orthogonalLoop=1;jettySize=auto;html=1;exitX=1;exitY=0.5;exitDx=0;exitDy=0;entryX=0;entryY=0.75;entryDx=0;entryDy=0;" edge="1" parent="1" source="PdHf83JX79WG0qEQujX1-72" target="PdHf83JX79WG0qEQujX1-74">
          <mxGeometry relative="1" as="geometry" />
        </mxCell>
        <mxCell id="PdHf83JX79WG0qEQujX1-72" value="Data2" style="rounded=1;whiteSpace=wrap;html=1;" vertex="1" parent="1">
          <mxGeometry x="830" y="-440" width="120" height="60" as="geometry" />
        </mxCell>
        <mxCell id="PdHf83JX79WG0qEQujX1-78" style="edgeStyle=orthogonalEdgeStyle;rounded=0;orthogonalLoop=1;jettySize=auto;html=1;exitX=0.25;exitY=1;exitDx=0;exitDy=0;entryX=0.75;entryY=1;entryDx=0;entryDy=0;" edge="1" parent="1" source="PdHf83JX79WG0qEQujX1-74" target="PdHf83JX79WG0qEQujX1-36">
          <mxGeometry relative="1" as="geometry">
            <mxPoint x="509.9999999999998" y="-560" as="targetPoint" />
            <Array as="points">
              <mxPoint x="1050" y="-370" />
              <mxPoint x="550" y="-370" />
            </Array>
          </mxGeometry>
        </mxCell>
        <mxCell id="PdHf83JX79WG0qEQujX1-81" style="edgeStyle=orthogonalEdgeStyle;rounded=0;orthogonalLoop=1;jettySize=auto;html=1;exitX=1;exitY=0.75;exitDx=0;exitDy=0;" edge="1" parent="1" source="PdHf83JX79WG0qEQujX1-74" target="PdHf83JX79WG0qEQujX1-80">
          <mxGeometry relative="1" as="geometry" />
        </mxCell>
        <mxCell id="PdHf83JX79WG0qEQujX1-86" style="edgeStyle=orthogonalEdgeStyle;rounded=0;orthogonalLoop=1;jettySize=auto;html=1;exitX=1;exitY=0.25;exitDx=0;exitDy=0;entryX=0.25;entryY=1;entryDx=0;entryDy=0;startArrow=none;" edge="1" parent="1" source="PdHf83JX79WG0qEQujX1-218" target="PdHf83JX79WG0qEQujX1-49">
          <mxGeometry relative="1" as="geometry">
            <mxPoint x="1120" y="-580" as="targetPoint" />
            <Array as="points">
              <mxPoint x="810" y="-560" />
            </Array>
          </mxGeometry>
        </mxCell>
        <mxCell id="PdHf83JX79WG0qEQujX1-74" value="1. Edit&lt;br&gt;2. Remove&lt;br&gt;3. Close" style="rounded=1;whiteSpace=wrap;html=1;" vertex="1" parent="1">
          <mxGeometry x="1020" y="-500" width="120" height="60" as="geometry" />
        </mxCell>
        <mxCell id="PdHf83JX79WG0qEQujX1-83" style="edgeStyle=orthogonalEdgeStyle;rounded=0;orthogonalLoop=1;jettySize=auto;html=1;exitX=0.5;exitY=1;exitDx=0;exitDy=0;" edge="1" parent="1" source="PdHf83JX79WG0qEQujX1-80" target="PdHf83JX79WG0qEQujX1-36">
          <mxGeometry relative="1" as="geometry">
            <mxPoint x="679.9999999999998" y="-250" as="targetPoint" />
          </mxGeometry>
        </mxCell>
        <mxCell id="PdHf83JX79WG0qEQujX1-80" value="Done!" style="rounded=1;whiteSpace=wrap;html=1;" vertex="1" parent="1">
          <mxGeometry x="1210" y="-440" width="120" height="60" as="geometry" />
        </mxCell>
        <mxCell id="PdHf83JX79WG0qEQujX1-84" value="3" style="text;html=1;align=center;verticalAlign=middle;resizable=0;points=[];autosize=1;strokeColor=none;fillColor=none;" vertex="1" parent="1">
          <mxGeometry x="1045" y="-425" width="30" height="30" as="geometry" />
        </mxCell>
        <mxCell id="PdHf83JX79WG0qEQujX1-85" value="2" style="text;html=1;align=center;verticalAlign=middle;resizable=0;points=[];autosize=1;strokeColor=none;fillColor=none;" vertex="1" parent="1">
          <mxGeometry x="1140" y="-455" width="30" height="30" as="geometry" />
        </mxCell>
        <mxCell id="PdHf83JX79WG0qEQujX1-87" value="1" style="text;html=1;align=center;verticalAlign=middle;resizable=0;points=[];autosize=1;strokeColor=none;fillColor=none;" vertex="1" parent="1">
          <mxGeometry x="1135" y="-515" width="30" height="30" as="geometry" />
        </mxCell>
        <mxCell id="PdHf83JX79WG0qEQujX1-88" value="1" style="text;html=1;align=center;verticalAlign=middle;resizable=0;points=[];autosize=1;strokeColor=none;fillColor=none;" vertex="1" parent="1">
          <mxGeometry x="745" y="-565" width="30" height="30" as="geometry" />
        </mxCell>
        <mxCell id="PdHf83JX79WG0qEQujX1-89" value="2" style="text;html=1;align=center;verticalAlign=middle;resizable=0;points=[];autosize=1;strokeColor=none;fillColor=none;" vertex="1" parent="1">
          <mxGeometry x="745" y="-485" width="30" height="30" as="geometry" />
        </mxCell>
        <mxCell id="PdHf83JX79WG0qEQujX1-93" style="edgeStyle=orthogonalEdgeStyle;rounded=0;orthogonalLoop=1;jettySize=auto;html=1;exitX=1;exitY=0.75;exitDx=0;exitDy=0;entryX=0;entryY=0.25;entryDx=0;entryDy=0;" edge="1" parent="1" source="PdHf83JX79WG0qEQujX1-90" target="PdHf83JX79WG0qEQujX1-91">
          <mxGeometry relative="1" as="geometry" />
        </mxCell>
        <mxCell id="PdHf83JX79WG0qEQujX1-90" value="Выбирает тип секрета" style="rounded=1;whiteSpace=wrap;html=1;" vertex="1" parent="1">
          <mxGeometry x="100" y="900" width="120" height="60" as="geometry" />
        </mxCell>
        <mxCell id="PdHf83JX79WG0qEQujX1-111" style="edgeStyle=orthogonalEdgeStyle;rounded=0;orthogonalLoop=1;jettySize=auto;html=1;exitX=1;exitY=0.75;exitDx=0;exitDy=0;entryX=0;entryY=0.5;entryDx=0;entryDy=0;" edge="1" parent="1" source="PdHf83JX79WG0qEQujX1-97" target="PdHf83JX79WG0qEQujX1-98">
          <mxGeometry relative="1" as="geometry" />
        </mxCell>
        <mxCell id="PdHf83JX79WG0qEQujX1-97" value="Вводит нужные данные" style="rounded=1;whiteSpace=wrap;html=1;" vertex="1" parent="1">
          <mxGeometry x="100" y="1210" width="120" height="60" as="geometry" />
        </mxCell>
        <mxCell id="PdHf83JX79WG0qEQujX1-100" value="" style="edgeStyle=orthogonalEdgeStyle;rounded=0;orthogonalLoop=1;jettySize=auto;html=1;" edge="1" parent="1" source="PdHf83JX79WG0qEQujX1-98" target="PdHf83JX79WG0qEQujX1-99">
          <mxGeometry relative="1" as="geometry" />
        </mxCell>
        <mxCell id="PdHf83JX79WG0qEQujX1-98" value="сериализует данные в бинарный формат" style="rounded=1;whiteSpace=wrap;html=1;" vertex="1" parent="1">
          <mxGeometry x="270" y="1280" width="160" height="80" as="geometry" />
        </mxCell>
        <mxCell id="PdHf83JX79WG0qEQujX1-112" style="edgeStyle=orthogonalEdgeStyle;rounded=0;orthogonalLoop=1;jettySize=auto;html=1;exitX=0.25;exitY=1;exitDx=0;exitDy=0;entryX=1;entryY=0.25;entryDx=0;entryDy=0;" edge="1" parent="1" source="PdHf83JX79WG0qEQujX1-95" target="PdHf83JX79WG0qEQujX1-97">
          <mxGeometry relative="1" as="geometry" />
        </mxCell>
        <mxCell id="PdHf83JX79WG0qEQujX1-114" value="Список секретов" style="swimlane;html=1;childLayout=stackLayout;startSize=20;rounded=0;shadow=0;labelBackgroundColor=none;strokeWidth=1;fontFamily=Verdana;fontSize=8;align=center;" vertex="1" parent="1">
          <mxGeometry x="80" y="1970" width="960" height="970" as="geometry" />
        </mxCell>
        <mxCell id="PdHf83JX79WG0qEQujX1-115" value="пользователь" style="swimlane;html=1;startSize=20;" vertex="1" parent="PdHf83JX79WG0qEQujX1-114">
          <mxGeometry y="20" width="160" height="950" as="geometry" />
        </mxCell>
        <mxCell id="PdHf83JX79WG0qEQujX1-147" value="Выбирает нужный секрет" style="shape=ext;double=1;rounded=1;whiteSpace=wrap;html=1;" vertex="1" parent="PdHf83JX79WG0qEQujX1-115">
          <mxGeometry x="20" y="370" width="120" height="80" as="geometry" />
        </mxCell>
        <mxCell id="PdHf83JX79WG0qEQujX1-119" value="клиентское приложение" style="swimlane;html=1;startSize=20;" vertex="1" parent="PdHf83JX79WG0qEQujX1-114">
          <mxGeometry x="160" y="20" width="160" height="950" as="geometry" />
        </mxCell>
        <mxCell id="PdHf83JX79WG0qEQujX1-137" value="Запрос имен и мета-данных секретов" style="shape=ext;double=1;rounded=1;whiteSpace=wrap;html=1;" vertex="1" parent="PdHf83JX79WG0qEQujX1-119">
          <mxGeometry x="20" y="70" width="120" height="80" as="geometry" />
        </mxCell>
        <mxCell id="PdHf83JX79WG0qEQujX1-144" value="Расшифровка data1 и data3 и отображение пользователя для выбора" style="shape=ext;double=1;rounded=1;whiteSpace=wrap;html=1;" vertex="1" parent="PdHf83JX79WG0qEQujX1-119">
          <mxGeometry x="20" y="300" width="120" height="80" as="geometry" />
        </mxCell>
        <mxCell id="PdHf83JX79WG0qEQujX1-149" value="запрос у сервера data2 по uid и version" style="rounded=1;whiteSpace=wrap;html=1;" vertex="1" parent="PdHf83JX79WG0qEQujX1-119">
          <mxGeometry x="20" y="450" width="120" height="60" as="geometry" />
        </mxCell>
        <mxCell id="PdHf83JX79WG0qEQujX1-157" value="показывыем что данные изменились и показываем экран с выбором действия выбора нового секрета или вывода списка" style="rounded=1;whiteSpace=wrap;html=1;" vertex="1" parent="PdHf83JX79WG0qEQujX1-119">
          <mxGeometry x="12.5" y="570" width="135" height="90" as="geometry" />
        </mxCell>
        <mxCell id="PdHf83JX79WG0qEQujX1-167" style="edgeStyle=orthogonalEdgeStyle;rounded=0;orthogonalLoop=1;jettySize=auto;html=1;exitX=0.5;exitY=1;exitDx=0;exitDy=0;entryX=0.5;entryY=0;entryDx=0;entryDy=0;" edge="1" parent="PdHf83JX79WG0qEQujX1-119" source="PdHf83JX79WG0qEQujX1-163" target="PdHf83JX79WG0qEQujX1-164">
          <mxGeometry relative="1" as="geometry" />
        </mxCell>
        <mxCell id="PdHf83JX79WG0qEQujX1-163" value="расшифровка данных и отображение" style="rounded=1;whiteSpace=wrap;html=1;" vertex="1" parent="PdHf83JX79WG0qEQujX1-119">
          <mxGeometry x="20" y="770" width="120" height="60" as="geometry" />
        </mxCell>
        <mxCell id="PdHf83JX79WG0qEQujX1-164" value="выбор:&lt;br&gt;1.edit&lt;br&gt;2. remove" style="rounded=1;whiteSpace=wrap;html=1;" vertex="1" parent="PdHf83JX79WG0qEQujX1-119">
          <mxGeometry x="20" y="850" width="120" height="60" as="geometry" />
        </mxCell>
        <mxCell id="PdHf83JX79WG0qEQujX1-123" value="сервер" style="swimlane;html=1;startSize=20;" vertex="1" parent="PdHf83JX79WG0qEQujX1-114">
          <mxGeometry x="320" y="20" width="200" height="950" as="geometry" />
        </mxCell>
        <mxCell id="PdHf83JX79WG0qEQujX1-138" value="Получение из таблицы всех uid, data1, data3, type и version пользователя" style="shape=ext;double=1;rounded=1;whiteSpace=wrap;html=1;" vertex="1" parent="PdHf83JX79WG0qEQujX1-123">
          <mxGeometry x="40" y="120" width="120" height="80" as="geometry" />
        </mxCell>
        <mxCell id="PdHf83JX79WG0qEQujX1-143" value="результат" style="shape=ext;double=1;rounded=1;whiteSpace=wrap;html=1;" vertex="1" parent="PdHf83JX79WG0qEQujX1-123">
          <mxGeometry x="40" y="240" width="120" height="80" as="geometry" />
        </mxCell>
        <mxCell id="PdHf83JX79WG0qEQujX1-151" value="запрос секрета по uid" style="shape=ext;double=1;rounded=1;whiteSpace=wrap;html=1;" vertex="1" parent="PdHf83JX79WG0qEQujX1-123">
          <mxGeometry x="40" y="490" width="120" height="80" as="geometry" />
        </mxCell>
        <mxCell id="PdHf83JX79WG0qEQujX1-166" style="edgeStyle=orthogonalEdgeStyle;rounded=0;orthogonalLoop=1;jettySize=auto;html=1;exitX=0.5;exitY=1;exitDx=0;exitDy=0;entryX=0.5;entryY=0;entryDx=0;entryDy=0;" edge="1" parent="PdHf83JX79WG0qEQujX1-123" source="PdHf83JX79WG0qEQujX1-154" target="PdHf83JX79WG0qEQujX1-162">
          <mxGeometry relative="1" as="geometry" />
        </mxCell>
        <mxCell id="PdHf83JX79WG0qEQujX1-154" value="версии отличаются?" style="shape=ext;double=1;rounded=1;whiteSpace=wrap;html=1;" vertex="1" parent="PdHf83JX79WG0qEQujX1-123">
          <mxGeometry x="40" y="610" width="120" height="80" as="geometry" />
        </mxCell>
        <mxCell id="PdHf83JX79WG0qEQujX1-162" value="возращаем данные" style="rounded=1;whiteSpace=wrap;html=1;" vertex="1" parent="PdHf83JX79WG0qEQujX1-123">
          <mxGeometry x="40" y="740" width="120" height="60" as="geometry" />
        </mxCell>
        <mxCell id="PdHf83JX79WG0qEQujX1-126" value="база" style="swimlane;html=1;startSize=20;" vertex="1" parent="PdHf83JX79WG0qEQujX1-114">
          <mxGeometry x="520" y="20" width="200" height="950" as="geometry" />
        </mxCell>
        <mxCell id="PdHf83JX79WG0qEQujX1-139" value="данные" style="rounded=1;whiteSpace=wrap;html=1;" vertex="1" parent="PdHf83JX79WG0qEQujX1-126">
          <mxGeometry x="40" y="170" width="120" height="60" as="geometry" />
        </mxCell>
        <mxCell id="PdHf83JX79WG0qEQujX1-153" value="данные" style="shape=ext;double=1;rounded=1;whiteSpace=wrap;html=1;" vertex="1" parent="PdHf83JX79WG0qEQujX1-126">
          <mxGeometry x="30" y="540" width="120" height="80" as="geometry" />
        </mxCell>
        <mxCell id="PdHf83JX79WG0qEQujX1-140" style="edgeStyle=orthogonalEdgeStyle;rounded=0;orthogonalLoop=1;jettySize=auto;html=1;exitX=1;exitY=0.5;exitDx=0;exitDy=0;entryX=0;entryY=0.25;entryDx=0;entryDy=0;" edge="1" parent="PdHf83JX79WG0qEQujX1-114" source="PdHf83JX79WG0qEQujX1-138" target="PdHf83JX79WG0qEQujX1-139">
          <mxGeometry relative="1" as="geometry" />
        </mxCell>
        <mxCell id="PdHf83JX79WG0qEQujX1-142" style="edgeStyle=orthogonalEdgeStyle;rounded=0;orthogonalLoop=1;jettySize=auto;html=1;exitX=1;exitY=0.5;exitDx=0;exitDy=0;entryX=0;entryY=0.5;entryDx=0;entryDy=0;" edge="1" parent="PdHf83JX79WG0qEQujX1-114" source="PdHf83JX79WG0qEQujX1-137" target="PdHf83JX79WG0qEQujX1-138">
          <mxGeometry relative="1" as="geometry" />
        </mxCell>
        <mxCell id="PdHf83JX79WG0qEQujX1-145" style="edgeStyle=orthogonalEdgeStyle;rounded=0;orthogonalLoop=1;jettySize=auto;html=1;exitX=0;exitY=0.75;exitDx=0;exitDy=0;entryX=1;entryY=0.5;entryDx=0;entryDy=0;" edge="1" parent="PdHf83JX79WG0qEQujX1-114" source="PdHf83JX79WG0qEQujX1-139" target="PdHf83JX79WG0qEQujX1-143">
          <mxGeometry relative="1" as="geometry" />
        </mxCell>
        <mxCell id="PdHf83JX79WG0qEQujX1-146" style="edgeStyle=orthogonalEdgeStyle;rounded=0;orthogonalLoop=1;jettySize=auto;html=1;exitX=0;exitY=0.5;exitDx=0;exitDy=0;entryX=1;entryY=0.25;entryDx=0;entryDy=0;" edge="1" parent="PdHf83JX79WG0qEQujX1-114" source="PdHf83JX79WG0qEQujX1-143" target="PdHf83JX79WG0qEQujX1-144">
          <mxGeometry relative="1" as="geometry" />
        </mxCell>
        <mxCell id="PdHf83JX79WG0qEQujX1-148" style="edgeStyle=orthogonalEdgeStyle;rounded=0;orthogonalLoop=1;jettySize=auto;html=1;exitX=0;exitY=0.5;exitDx=0;exitDy=0;entryX=1;entryY=0.25;entryDx=0;entryDy=0;" edge="1" parent="PdHf83JX79WG0qEQujX1-114" source="PdHf83JX79WG0qEQujX1-144" target="PdHf83JX79WG0qEQujX1-147">
          <mxGeometry relative="1" as="geometry" />
        </mxCell>
        <mxCell id="PdHf83JX79WG0qEQujX1-150" style="edgeStyle=orthogonalEdgeStyle;rounded=0;orthogonalLoop=1;jettySize=auto;html=1;exitX=1;exitY=0.75;exitDx=0;exitDy=0;entryX=0;entryY=0.25;entryDx=0;entryDy=0;" edge="1" parent="PdHf83JX79WG0qEQujX1-114" source="PdHf83JX79WG0qEQujX1-147" target="PdHf83JX79WG0qEQujX1-149">
          <mxGeometry relative="1" as="geometry" />
        </mxCell>
        <mxCell id="PdHf83JX79WG0qEQujX1-152" style="edgeStyle=orthogonalEdgeStyle;rounded=0;orthogonalLoop=1;jettySize=auto;html=1;exitX=1;exitY=0.5;exitDx=0;exitDy=0;entryX=0;entryY=0.25;entryDx=0;entryDy=0;" edge="1" parent="PdHf83JX79WG0qEQujX1-114" source="PdHf83JX79WG0qEQujX1-149" target="PdHf83JX79WG0qEQujX1-151">
          <mxGeometry relative="1" as="geometry" />
        </mxCell>
        <mxCell id="PdHf83JX79WG0qEQujX1-158" style="edgeStyle=orthogonalEdgeStyle;rounded=0;orthogonalLoop=1;jettySize=auto;html=1;exitX=0;exitY=0.25;exitDx=0;exitDy=0;entryX=1;entryY=0.5;entryDx=0;entryDy=0;" edge="1" parent="PdHf83JX79WG0qEQujX1-114" source="PdHf83JX79WG0qEQujX1-154" target="PdHf83JX79WG0qEQujX1-157">
          <mxGeometry relative="1" as="geometry" />
        </mxCell>
        <mxCell id="PdHf83JX79WG0qEQujX1-160" style="edgeStyle=orthogonalEdgeStyle;rounded=0;orthogonalLoop=1;jettySize=auto;html=1;exitX=1;exitY=0.5;exitDx=0;exitDy=0;entryX=0;entryY=0.25;entryDx=0;entryDy=0;" edge="1" parent="PdHf83JX79WG0qEQujX1-114" source="PdHf83JX79WG0qEQujX1-151" target="PdHf83JX79WG0qEQujX1-153">
          <mxGeometry relative="1" as="geometry" />
        </mxCell>
        <mxCell id="PdHf83JX79WG0qEQujX1-161" style="edgeStyle=orthogonalEdgeStyle;rounded=0;orthogonalLoop=1;jettySize=auto;html=1;exitX=0;exitY=0.75;exitDx=0;exitDy=0;entryX=1;entryY=0.25;entryDx=0;entryDy=0;" edge="1" parent="PdHf83JX79WG0qEQujX1-114" source="PdHf83JX79WG0qEQujX1-153" target="PdHf83JX79WG0qEQujX1-154">
          <mxGeometry relative="1" as="geometry" />
        </mxCell>
        <mxCell id="PdHf83JX79WG0qEQujX1-165" style="edgeStyle=orthogonalEdgeStyle;rounded=0;orthogonalLoop=1;jettySize=auto;html=1;exitX=0;exitY=0.5;exitDx=0;exitDy=0;entryX=1;entryY=0.25;entryDx=0;entryDy=0;" edge="1" parent="PdHf83JX79WG0qEQujX1-114" source="PdHf83JX79WG0qEQujX1-162" target="PdHf83JX79WG0qEQujX1-163">
          <mxGeometry relative="1" as="geometry" />
        </mxCell>
        <mxCell id="PdHf83JX79WG0qEQujX1-141" style="edgeStyle=orthogonalEdgeStyle;rounded=0;orthogonalLoop=1;jettySize=auto;html=1;exitX=1;exitY=0.5;exitDx=0;exitDy=0;entryX=-0.003;entryY=0.371;entryDx=0;entryDy=0;entryPerimeter=0;" edge="1" parent="1" source="PdHf83JX79WG0qEQujX1-136" target="PdHf83JX79WG0qEQujX1-137">
          <mxGeometry relative="1" as="geometry" />
        </mxCell>
        <mxCell id="PdHf83JX79WG0qEQujX1-136" value="Выбор списка секретов" style="rounded=1;whiteSpace=wrap;html=1;" vertex="1" parent="1">
          <mxGeometry x="100" y="2050" width="120" height="60" as="geometry" />
        </mxCell>
        <mxCell id="PdHf83JX79WG0qEQujX1-159" value="да" style="text;html=1;align=center;verticalAlign=middle;resizable=0;points=[];autosize=1;strokeColor=none;fillColor=none;" vertex="1" parent="1">
          <mxGeometry x="400" y="2575" width="40" height="30" as="geometry" />
        </mxCell>
        <mxCell id="PdHf83JX79WG0qEQujX1-168" value="дальше от выбора другая схема" style="rounded=1;whiteSpace=wrap;html=1;" vertex="1" parent="1">
          <mxGeometry x="100" y="2850" width="120" height="60" as="geometry" />
        </mxCell>
        <mxCell id="PdHf83JX79WG0qEQujX1-169" style="edgeStyle=orthogonalEdgeStyle;rounded=0;orthogonalLoop=1;jettySize=auto;html=1;exitX=0;exitY=0.5;exitDx=0;exitDy=0;entryX=1;entryY=0.25;entryDx=0;entryDy=0;" edge="1" parent="1" source="PdHf83JX79WG0qEQujX1-164" target="PdHf83JX79WG0qEQujX1-168">
          <mxGeometry relative="1" as="geometry" />
        </mxCell>
        <mxCell id="PdHf83JX79WG0qEQujX1-192" value="Редактирование" style="swimlane;html=1;childLayout=stackLayout;startSize=20;rounded=0;shadow=0;labelBackgroundColor=none;strokeWidth=1;fontFamily=Verdana;fontSize=8;align=center;" vertex="1" parent="1">
          <mxGeometry x="80" y="2980" width="960" height="1250" as="geometry" />
        </mxCell>
        <mxCell id="PdHf83JX79WG0qEQujX1-193" value="пользователь" style="swimlane;html=1;startSize=20;" vertex="1" parent="PdHf83JX79WG0qEQujX1-192">
          <mxGeometry y="20" width="160" height="1230" as="geometry" />
        </mxCell>
        <mxCell id="PdHf83JX79WG0qEQujX1-214" value="редактировать" style="rounded=1;whiteSpace=wrap;html=1;" vertex="1" parent="PdHf83JX79WG0qEQujX1-193">
          <mxGeometry x="20" y="40" width="120" height="60" as="geometry" />
        </mxCell>
        <mxCell id="PdHf83JX79WG0qEQujX1-220" value="редактирование имени" style="rounded=1;whiteSpace=wrap;html=1;" vertex="1" parent="PdHf83JX79WG0qEQujX1-193">
          <mxGeometry x="20" y="140" width="120" height="60" as="geometry" />
        </mxCell>
        <mxCell id="PdHf83JX79WG0qEQujX1-225" value="редактирует данные" style="rounded=1;whiteSpace=wrap;html=1;" vertex="1" parent="PdHf83JX79WG0qEQujX1-193">
          <mxGeometry x="20" y="270" width="120" height="60" as="geometry" />
        </mxCell>
        <mxCell id="PdHf83JX79WG0qEQujX1-227" value="редактирует мету" style="rounded=1;whiteSpace=wrap;html=1;" vertex="1" parent="PdHf83JX79WG0qEQujX1-193">
          <mxGeometry x="20" y="390" width="120" height="60" as="geometry" />
        </mxCell>
        <mxCell id="PdHf83JX79WG0qEQujX1-267" style="edgeStyle=orthogonalEdgeStyle;rounded=0;orthogonalLoop=1;jettySize=auto;html=1;exitX=0.5;exitY=1;exitDx=0;exitDy=0;entryX=0.25;entryY=0;entryDx=0;entryDy=0;" edge="1" parent="PdHf83JX79WG0qEQujX1-193" source="PdHf83JX79WG0qEQujX1-263" target="PdHf83JX79WG0qEQujX1-266">
          <mxGeometry relative="1" as="geometry" />
        </mxCell>
        <mxCell id="PdHf83JX79WG0qEQujX1-263" value="данные сохранены" style="rounded=1;whiteSpace=wrap;html=1;" vertex="1" parent="PdHf83JX79WG0qEQujX1-193">
          <mxGeometry x="10" y="1030" width="120" height="60" as="geometry" />
        </mxCell>
        <mxCell id="PdHf83JX79WG0qEQujX1-273" style="edgeStyle=orthogonalEdgeStyle;rounded=0;orthogonalLoop=1;jettySize=auto;html=1;exitX=0;exitY=0.75;exitDx=0;exitDy=0;entryX=0;entryY=0.5;entryDx=0;entryDy=0;" edge="1" parent="PdHf83JX79WG0qEQujX1-193" source="PdHf83JX79WG0qEQujX1-264" target="PdHf83JX79WG0qEQujX1-266">
          <mxGeometry relative="1" as="geometry">
            <Array as="points">
              <mxPoint x="-50" y="925" />
              <mxPoint x="-50" y="1180" />
            </Array>
          </mxGeometry>
        </mxCell>
        <mxCell id="PdHf83JX79WG0qEQujX1-264" value="отображение ошибки" style="rounded=1;whiteSpace=wrap;html=1;" vertex="1" parent="PdHf83JX79WG0qEQujX1-193">
          <mxGeometry x="20" y="880" width="120" height="60" as="geometry" />
        </mxCell>
        <mxCell id="PdHf83JX79WG0qEQujX1-266" value="выход в первый шаг" style="rounded=1;whiteSpace=wrap;html=1;" vertex="1" parent="PdHf83JX79WG0qEQujX1-193">
          <mxGeometry x="20" y="1150" width="120" height="60" as="geometry" />
        </mxCell>
        <mxCell id="PdHf83JX79WG0qEQujX1-197" value="клиентское приложение" style="swimlane;html=1;startSize=20;" vertex="1" parent="PdHf83JX79WG0qEQujX1-192">
          <mxGeometry x="160" y="20" width="160" height="1230" as="geometry" />
        </mxCell>
        <mxCell id="PdHf83JX79WG0qEQujX1-217" value="Просим ввести имя, поле предзаполненно" style="rounded=1;whiteSpace=wrap;html=1;" vertex="1" parent="PdHf83JX79WG0qEQujX1-197">
          <mxGeometry x="20" y="80" width="120" height="60" as="geometry" />
        </mxCell>
        <mxCell id="PdHf83JX79WG0qEQujX1-221" value="проим ввести данные, данные предзаполненны, если такая возможность есть" style="rounded=1;whiteSpace=wrap;html=1;" vertex="1" parent="PdHf83JX79WG0qEQujX1-197">
          <mxGeometry x="20" y="200" width="120" height="90" as="geometry" />
        </mxCell>
        <mxCell id="PdHf83JX79WG0qEQujX1-226" value="просим ввести мету" style="rounded=1;whiteSpace=wrap;html=1;" vertex="1" parent="PdHf83JX79WG0qEQujX1-197">
          <mxGeometry x="20" y="340" width="120" height="60" as="geometry" />
        </mxCell>
        <mxCell id="PdHf83JX79WG0qEQujX1-234" style="edgeStyle=orthogonalEdgeStyle;rounded=0;orthogonalLoop=1;jettySize=auto;html=1;exitX=0.5;exitY=1;exitDx=0;exitDy=0;entryX=0.5;entryY=0;entryDx=0;entryDy=0;" edge="1" parent="PdHf83JX79WG0qEQujX1-197" source="PdHf83JX79WG0qEQujX1-231" target="PdHf83JX79WG0qEQujX1-233">
          <mxGeometry relative="1" as="geometry" />
        </mxCell>
        <mxCell id="PdHf83JX79WG0qEQujX1-231" value="шифруем все введеные данные" style="rounded=1;whiteSpace=wrap;html=1;" vertex="1" parent="PdHf83JX79WG0qEQujX1-197">
          <mxGeometry x="20" y="460" width="120" height="60" as="geometry" />
        </mxCell>
        <mxCell id="PdHf83JX79WG0qEQujX1-233" value="отправка для редактирования записи&lt;br&gt;uid, data1, data2, data3, version" style="rounded=1;whiteSpace=wrap;html=1;" vertex="1" parent="PdHf83JX79WG0qEQujX1-197">
          <mxGeometry x="20" y="550" width="120" height="90" as="geometry" />
        </mxCell>
        <mxCell id="PdHf83JX79WG0qEQujX1-201" value="сервер" style="swimlane;html=1;startSize=20;" vertex="1" parent="PdHf83JX79WG0qEQujX1-192">
          <mxGeometry x="320" y="20" width="200" height="1230" as="geometry" />
        </mxCell>
        <mxCell id="PdHf83JX79WG0qEQujX1-235" value="" style="rounded=1;whiteSpace=wrap;html=1;" vertex="1" parent="PdHf83JX79WG0qEQujX1-201">
          <mxGeometry x="40" y="620" width="120" height="60" as="geometry" />
        </mxCell>
        <mxCell id="PdHf83JX79WG0qEQujX1-238" value="возвращаем ошибку" style="rounded=1;whiteSpace=wrap;html=1;" vertex="1" parent="PdHf83JX79WG0qEQujX1-201">
          <mxGeometry x="40" y="700" width="120" height="60" as="geometry" />
        </mxCell>
        <mxCell id="PdHf83JX79WG0qEQujX1-245" value="возвращаем ошибку" style="rounded=1;whiteSpace=wrap;html=1;" vertex="1" parent="PdHf83JX79WG0qEQujX1-201">
          <mxGeometry x="50" y="870" width="120" height="60" as="geometry" />
        </mxCell>
        <mxCell id="PdHf83JX79WG0qEQujX1-258" value="данные сохранены" style="rounded=1;whiteSpace=wrap;html=1;" vertex="1" parent="PdHf83JX79WG0qEQujX1-201">
          <mxGeometry x="40" y="1020" width="120" height="60" as="geometry" />
        </mxCell>
        <mxCell id="PdHf83JX79WG0qEQujX1-204" value="база" style="swimlane;html=1;startSize=20;" vertex="1" parent="PdHf83JX79WG0qEQujX1-192">
          <mxGeometry x="520" y="20" width="400" height="1230" as="geometry" />
        </mxCell>
        <mxCell id="PdHf83JX79WG0qEQujX1-243" style="edgeStyle=orthogonalEdgeStyle;rounded=0;orthogonalLoop=1;jettySize=auto;html=1;exitX=0.5;exitY=1;exitDx=0;exitDy=0;entryX=0.5;entryY=0;entryDx=0;entryDy=0;" edge="1" parent="PdHf83JX79WG0qEQujX1-204" source="PdHf83JX79WG0qEQujX1-237" target="PdHf83JX79WG0qEQujX1-242">
          <mxGeometry relative="1" as="geometry" />
        </mxCell>
        <mxCell id="PdHf83JX79WG0qEQujX1-237" value="версия в запросе отличается?" style="rounded=1;whiteSpace=wrap;html=1;" vertex="1" parent="PdHf83JX79WG0qEQujX1-204">
          <mxGeometry x="40" y="690" width="120" height="60" as="geometry" />
        </mxCell>
        <mxCell id="PdHf83JX79WG0qEQujX1-247" style="edgeStyle=orthogonalEdgeStyle;rounded=0;orthogonalLoop=1;jettySize=auto;html=1;exitX=0.5;exitY=1;exitDx=0;exitDy=0;entryX=0.5;entryY=0;entryDx=0;entryDy=0;" edge="1" parent="PdHf83JX79WG0qEQujX1-204" source="PdHf83JX79WG0qEQujX1-242" target="PdHf83JX79WG0qEQujX1-244">
          <mxGeometry relative="1" as="geometry" />
        </mxCell>
        <mxCell id="PdHf83JX79WG0qEQujX1-252" style="edgeStyle=orthogonalEdgeStyle;rounded=0;orthogonalLoop=1;jettySize=auto;html=1;exitX=1;exitY=0.5;exitDx=0;exitDy=0;" edge="1" parent="PdHf83JX79WG0qEQujX1-204" source="PdHf83JX79WG0qEQujX1-242" target="PdHf83JX79WG0qEQujX1-251">
          <mxGeometry relative="1" as="geometry" />
        </mxCell>
        <mxCell id="PdHf83JX79WG0qEQujX1-242" value="имя менялось?" style="rounded=1;whiteSpace=wrap;html=1;" vertex="1" parent="PdHf83JX79WG0qEQujX1-204">
          <mxGeometry x="40" y="780" width="120" height="60" as="geometry" />
        </mxCell>
        <mxCell id="PdHf83JX79WG0qEQujX1-253" style="edgeStyle=orthogonalEdgeStyle;rounded=0;orthogonalLoop=1;jettySize=auto;html=1;exitX=1;exitY=0.5;exitDx=0;exitDy=0;" edge="1" parent="PdHf83JX79WG0qEQujX1-204" source="PdHf83JX79WG0qEQujX1-244" target="PdHf83JX79WG0qEQujX1-251">
          <mxGeometry relative="1" as="geometry" />
        </mxCell>
        <mxCell id="PdHf83JX79WG0qEQujX1-244" value="такое уже есть в базе?" style="rounded=1;whiteSpace=wrap;html=1;" vertex="1" parent="PdHf83JX79WG0qEQujX1-204">
          <mxGeometry x="40" y="870" width="120" height="60" as="geometry" />
        </mxCell>
        <mxCell id="PdHf83JX79WG0qEQujX1-251" value="сохраняем данные в базе и инкрементируем версию" style="rounded=1;whiteSpace=wrap;html=1;" vertex="1" parent="PdHf83JX79WG0qEQujX1-204">
          <mxGeometry x="220" y="920" width="120" height="60" as="geometry" />
        </mxCell>
        <mxCell id="PdHf83JX79WG0qEQujX1-222" style="edgeStyle=orthogonalEdgeStyle;rounded=0;orthogonalLoop=1;jettySize=auto;html=1;exitX=1;exitY=0.5;exitDx=0;exitDy=0;entryX=0;entryY=0.5;entryDx=0;entryDy=0;" edge="1" parent="PdHf83JX79WG0qEQujX1-192" source="PdHf83JX79WG0qEQujX1-214" target="PdHf83JX79WG0qEQujX1-217">
          <mxGeometry relative="1" as="geometry" />
        </mxCell>
        <mxCell id="PdHf83JX79WG0qEQujX1-223" style="edgeStyle=orthogonalEdgeStyle;rounded=0;orthogonalLoop=1;jettySize=auto;html=1;exitX=0;exitY=0.75;exitDx=0;exitDy=0;entryX=1;entryY=0.25;entryDx=0;entryDy=0;" edge="1" parent="PdHf83JX79WG0qEQujX1-192" source="PdHf83JX79WG0qEQujX1-217" target="PdHf83JX79WG0qEQujX1-220">
          <mxGeometry relative="1" as="geometry" />
        </mxCell>
        <mxCell id="PdHf83JX79WG0qEQujX1-224" style="edgeStyle=orthogonalEdgeStyle;rounded=0;orthogonalLoop=1;jettySize=auto;html=1;exitX=1;exitY=0.75;exitDx=0;exitDy=0;entryX=0;entryY=0.25;entryDx=0;entryDy=0;" edge="1" parent="PdHf83JX79WG0qEQujX1-192" source="PdHf83JX79WG0qEQujX1-220" target="PdHf83JX79WG0qEQujX1-221">
          <mxGeometry relative="1" as="geometry" />
        </mxCell>
        <mxCell id="PdHf83JX79WG0qEQujX1-228" style="edgeStyle=orthogonalEdgeStyle;rounded=0;orthogonalLoop=1;jettySize=auto;html=1;exitX=0;exitY=0.75;exitDx=0;exitDy=0;entryX=1;entryY=0.25;entryDx=0;entryDy=0;" edge="1" parent="PdHf83JX79WG0qEQujX1-192" source="PdHf83JX79WG0qEQujX1-221" target="PdHf83JX79WG0qEQujX1-225">
          <mxGeometry relative="1" as="geometry" />
        </mxCell>
        <mxCell id="PdHf83JX79WG0qEQujX1-229" style="edgeStyle=orthogonalEdgeStyle;rounded=0;orthogonalLoop=1;jettySize=auto;html=1;exitX=1;exitY=0.75;exitDx=0;exitDy=0;entryX=0;entryY=0.25;entryDx=0;entryDy=0;" edge="1" parent="PdHf83JX79WG0qEQujX1-192" source="PdHf83JX79WG0qEQujX1-225" target="PdHf83JX79WG0qEQujX1-226">
          <mxGeometry relative="1" as="geometry" />
        </mxCell>
        <mxCell id="PdHf83JX79WG0qEQujX1-230" style="edgeStyle=orthogonalEdgeStyle;rounded=0;orthogonalLoop=1;jettySize=auto;html=1;exitX=0;exitY=0.75;exitDx=0;exitDy=0;entryX=1;entryY=0.25;entryDx=0;entryDy=0;" edge="1" parent="PdHf83JX79WG0qEQujX1-192" source="PdHf83JX79WG0qEQujX1-226" target="PdHf83JX79WG0qEQujX1-227">
          <mxGeometry relative="1" as="geometry" />
        </mxCell>
        <mxCell id="PdHf83JX79WG0qEQujX1-232" style="edgeStyle=orthogonalEdgeStyle;rounded=0;orthogonalLoop=1;jettySize=auto;html=1;exitX=1;exitY=0.75;exitDx=0;exitDy=0;entryX=0;entryY=0.25;entryDx=0;entryDy=0;" edge="1" parent="PdHf83JX79WG0qEQujX1-192" source="PdHf83JX79WG0qEQujX1-227" target="PdHf83JX79WG0qEQujX1-231">
          <mxGeometry relative="1" as="geometry" />
        </mxCell>
        <mxCell id="PdHf83JX79WG0qEQujX1-236" style="edgeStyle=orthogonalEdgeStyle;rounded=0;orthogonalLoop=1;jettySize=auto;html=1;exitX=1;exitY=0.75;exitDx=0;exitDy=0;entryX=0;entryY=0.25;entryDx=0;entryDy=0;" edge="1" parent="PdHf83JX79WG0qEQujX1-192" source="PdHf83JX79WG0qEQujX1-233" target="PdHf83JX79WG0qEQujX1-235">
          <mxGeometry relative="1" as="geometry" />
        </mxCell>
        <mxCell id="PdHf83JX79WG0qEQujX1-239" style="edgeStyle=orthogonalEdgeStyle;rounded=0;orthogonalLoop=1;jettySize=auto;html=1;exitX=0;exitY=0.5;exitDx=0;exitDy=0;entryX=1;entryY=0.5;entryDx=0;entryDy=0;" edge="1" parent="PdHf83JX79WG0qEQujX1-192" source="PdHf83JX79WG0qEQujX1-237" target="PdHf83JX79WG0qEQujX1-238">
          <mxGeometry relative="1" as="geometry" />
        </mxCell>
        <mxCell id="PdHf83JX79WG0qEQujX1-241" style="edgeStyle=orthogonalEdgeStyle;rounded=0;orthogonalLoop=1;jettySize=auto;html=1;exitX=1;exitY=0.5;exitDx=0;exitDy=0;" edge="1" parent="PdHf83JX79WG0qEQujX1-192" source="PdHf83JX79WG0qEQujX1-235" target="PdHf83JX79WG0qEQujX1-237">
          <mxGeometry relative="1" as="geometry" />
        </mxCell>
        <mxCell id="PdHf83JX79WG0qEQujX1-246" style="edgeStyle=orthogonalEdgeStyle;rounded=0;orthogonalLoop=1;jettySize=auto;html=1;exitX=0;exitY=0.5;exitDx=0;exitDy=0;entryX=1;entryY=0.5;entryDx=0;entryDy=0;" edge="1" parent="PdHf83JX79WG0qEQujX1-192" source="PdHf83JX79WG0qEQujX1-244" target="PdHf83JX79WG0qEQujX1-245">
          <mxGeometry relative="1" as="geometry" />
        </mxCell>
        <mxCell id="PdHf83JX79WG0qEQujX1-259" style="edgeStyle=orthogonalEdgeStyle;rounded=0;orthogonalLoop=1;jettySize=auto;html=1;exitX=0.5;exitY=1;exitDx=0;exitDy=0;entryX=1;entryY=0.5;entryDx=0;entryDy=0;" edge="1" parent="PdHf83JX79WG0qEQujX1-192" source="PdHf83JX79WG0qEQujX1-251" target="PdHf83JX79WG0qEQujX1-258">
          <mxGeometry relative="1" as="geometry" />
        </mxCell>
        <mxCell id="PdHf83JX79WG0qEQujX1-272" style="edgeStyle=orthogonalEdgeStyle;rounded=0;orthogonalLoop=1;jettySize=auto;html=1;exitX=0;exitY=0.5;exitDx=0;exitDy=0;" edge="1" parent="PdHf83JX79WG0qEQujX1-192" source="PdHf83JX79WG0qEQujX1-245" target="PdHf83JX79WG0qEQujX1-264">
          <mxGeometry relative="1" as="geometry" />
        </mxCell>
        <mxCell id="PdHf83JX79WG0qEQujX1-274" style="edgeStyle=orthogonalEdgeStyle;rounded=0;orthogonalLoop=1;jettySize=auto;html=1;exitX=0;exitY=0.5;exitDx=0;exitDy=0;" edge="1" parent="PdHf83JX79WG0qEQujX1-192" source="PdHf83JX79WG0qEQujX1-238" target="PdHf83JX79WG0qEQujX1-264">
          <mxGeometry relative="1" as="geometry" />
        </mxCell>
        <mxCell id="PdHf83JX79WG0qEQujX1-219" value="" style="edgeStyle=orthogonalEdgeStyle;rounded=0;orthogonalLoop=1;jettySize=auto;html=1;exitX=1;exitY=0.25;exitDx=0;exitDy=0;entryX=0.25;entryY=1;entryDx=0;entryDy=0;endArrow=none;" edge="1" parent="1" source="PdHf83JX79WG0qEQujX1-74" target="PdHf83JX79WG0qEQujX1-218">
          <mxGeometry relative="1" as="geometry">
            <mxPoint x="1140" y="-485" as="sourcePoint" />
            <mxPoint x="810" y="-680" as="targetPoint" />
            <Array as="points">
              <mxPoint x="1160" y="-485" />
              <mxPoint x="1160" y="-560" />
            </Array>
          </mxGeometry>
        </mxCell>
        <mxCell id="PdHf83JX79WG0qEQujX1-218" value="тут шаги повторяются, все данные предзаполненны, если такая возможность есть" style="text;html=1;align=center;verticalAlign=middle;resizable=0;points=[];autosize=1;strokeColor=none;fillColor=none;" vertex="1" parent="1">
          <mxGeometry x="775" y="-570" width="500" height="30" as="geometry" />
        </mxCell>
        <mxCell id="PdHf83JX79WG0qEQujX1-240" value="да" style="text;html=1;align=center;verticalAlign=middle;resizable=0;points=[];autosize=1;strokeColor=none;fillColor=none;" vertex="1" parent="1">
          <mxGeometry x="560" y="3695" width="40" height="30" as="geometry" />
        </mxCell>
        <mxCell id="PdHf83JX79WG0qEQujX1-248" value="нет" style="text;html=1;align=center;verticalAlign=middle;resizable=0;points=[];autosize=1;strokeColor=none;fillColor=none;" vertex="1" parent="1">
          <mxGeometry x="710" y="3745" width="40" height="30" as="geometry" />
        </mxCell>
        <mxCell id="PdHf83JX79WG0qEQujX1-249" value="да" style="text;html=1;align=center;verticalAlign=middle;resizable=0;points=[];autosize=1;strokeColor=none;fillColor=none;" vertex="1" parent="1">
          <mxGeometry x="700" y="3845" width="40" height="30" as="geometry" />
        </mxCell>
        <mxCell id="PdHf83JX79WG0qEQujX1-250" value="да" style="text;html=1;align=center;verticalAlign=middle;resizable=0;points=[];autosize=1;strokeColor=none;fillColor=none;" vertex="1" parent="1">
          <mxGeometry x="590" y="3875" width="40" height="30" as="geometry" />
        </mxCell>
        <mxCell id="PdHf83JX79WG0qEQujX1-254" value="нет" style="text;html=1;align=center;verticalAlign=middle;resizable=0;points=[];autosize=1;strokeColor=none;fillColor=none;" vertex="1" parent="1">
          <mxGeometry x="760" y="3865" width="40" height="30" as="geometry" />
        </mxCell>
        <mxCell id="PdHf83JX79WG0qEQujX1-255" value="нет" style="text;html=1;align=center;verticalAlign=middle;resizable=0;points=[];autosize=1;strokeColor=none;fillColor=none;" vertex="1" parent="1">
          <mxGeometry x="780" y="3775" width="40" height="30" as="geometry" />
        </mxCell>
        <mxCell id="PdHf83JX79WG0qEQujX1-275" value="Транспорт HTTPS&lt;br&gt;Авторизованная зона, запросы с токеном в куках&lt;br&gt;База PG" style="rounded=1;whiteSpace=wrap;html=1;" vertex="1" parent="1">
          <mxGeometry x="430" y="-250" width="370" height="170" as="geometry" />
        </mxCell>
        <mxCell id="PdHf83JX79WG0qEQujX1-276" value="Удаление по uid и версии&lt;br&gt;если версия не совпадает, возвращаем ошибку, что данные уже поменялись&lt;br&gt;переход к первому шагу с выбором" style="rounded=1;whiteSpace=wrap;html=1;" vertex="1" parent="1">
          <mxGeometry x="110" y="4350" width="460" height="210" as="geometry" />
        </mxCell>
      </root>
    </mxGraphModel>
  </diagram>
</mxfile>
